<svg viewBox="0 0 400 100" xmlns="http://www.w3.org/2000/svg" xmlns:bx="https://boxy-svg.com">
  <defs>
    <bx:grid x="0.084" y="0.905" width="100" height="100"></bx:grid>
  </defs>
  <path
    d="M 82.902 68.911 C 70.959 93.442 30.721 86.968 16.828 68.121 C 11.796 61.287 9.836 52.217 13.343 44.214 C 24.112 19.429 68.034 16.76 90.239 14.573 C 133.831 10.359 177.944 11.59 221.615 13.789 C 276.922 16.579 331.881 24.379 387.121 27.273 C 386.349 36.414 385.579 45.559 384.809 54.704 C 333.712 48.993 283.092 38.948 231.962 33.107 C 192.959 28.652 153.702 25.071 114.426 24.821 C 88.208 24.653 43.687 21.611 22.564 41.682 C 20.981 43.191 19.652 44.887 18.707 46.762 C 15.634 52.801 17.095 59.956 20.65 65.402 C 32.792 84.045 70.214 90.619 82.465 68.674 L 82.902 68.911 C 81.8 71.171 82.902 68.911 82.902 68.911"
    style="fill: #555555; fill-opacity: 1; fill-rule: nonzero; stroke: none;" id="path156"></path>
</svg>