<svg  preserveAspectRatio="none" viewBox="0 0 400 100" xmlns="http://www.w3.org/2000/svg" xmlns:bx="https://boxy-svg.com">
<svg viewBox="136.827 666.143 367.698 79.032" width="367.698" height="79.032">
  <path id="path62" style="fill:#373535;fill-opacity:1;fill-rule:nonzero;stroke:none" d="m 0,0 c 23.52,16.447 9.336,47.174 -17.922,47.311 -16.278,0.073 -32.263,-5.226 -47.762,-9.588 -67.188,-18.907 -127.625,-22.29 -195.391,-3.034 2.681,8.196 5.361,16.39 8.042,24.585 36.018,-13.432 73.762,-23.131 112.483,-21.754 29.604,1.148 58.345,7.82 87.349,13.169 15.604,2.879 35.666,6.318 50.936,-1.054 C 17.717,40.003 21.981,9.231 0,0 2.705,1.892 0,0 0,0" transform="matrix(1.333333, 0, 0, -1.333333, 484.92654, 745.175101)"></path>
</svg>
</svg>