<svg preserveAspectRatio="none" viewBox="152.958 473.89 500 37.176" xmlns="http://www.w3.org/2000/svg">
  <defs></defs>
  <text style="font-size: 36; font-family: Roboto; white-space: pre;" transform="matrix(1, 0, 0, 1, 833.468186, 435.338294)"></text>
  <g id="change1_1" transform="matrix(1, 0, 0, 1, 622.068176, 256.523506)">
    <path d="M 30.83 240.452 C 30.83 240.133 30.83 239.811 30.83 239.492 C 29.96 239.397 29.09 239.303 28.21 239.208 C 31.67 237.846 28.01 236.783 25.8 235.661 C 25.8 235.661 25.8 235.661 25.8 235.661 C 30.72 235.177 23.95 234.817 25.58 234.369 C 25.58 234.369 25.58 234.369 25.58 234.369 C 27.26 233.782 30.74 233.281 27.06 232.438 C 25.72 232.029 24.39 231.62 23.06 231.211 C 23.06 231.211 23.06 231.211 23.06 231.211 C 23.74 229.906 19.5 229.073 18.06 227.971 C 19.26 227.916 21.3 227.826 20.72 227.534 C 19.9 227.123 17.98 227.265 16.62 227.569 C 16.62 227.569 16.62 227.569 16.62 227.569 C 15.08 227.347 15.42 226.636 12.87 226.679 C 13.56 226.359 13.64 226.045 12.75 225.738 C 12.08 225.556 11.26 225.454 10.26 225.439 C 10.06 225.441 9.87 225.449 9.68 225.456 C 9.43 225.374 9.14 225.302 8.81 225.24 C 10.19 225.227 11.6 225.267 12.92 225.122 C 13.32 225.002 13.72 224.88 14.12 224.761 C 15.06 224.796 16.05 225.088 16.94 224.813 C 19.47 224.03 19.96 222.915 23.56 222.281 C 23.86 222.229 23.19 221.695 21.9 221.535 C 21.9 221.535 21.9 221.535 21.9 221.535 C 20.81 221.198 19.38 221.249 17.93 221.313 C 17.93 221.313 17.93 221.313 17.93 221.313 C 17.93 221.313 17.93 221.313 17.93 221.313 C 15.8 220.879 13.66 221.33 11.53 221.306 C 11.53 221.306 11.53 221.306 11.53 221.306 C 6.84 221.168 2.14 221.034 -2.55 220.897 C -2.55 220.897 -2.55 220.897 -2.55 220.897 C -8.05 220.57 -13.55 220.226 -19.26 220.58 C -19.26 220.58 -19.26 220.58 -19.26 220.58 C -21.12 219.407 -25.33 220.213 -28.23 219.917 C -29.15 219.585 -30.05 219.642 -30.92 219.929 C -30.92 219.929 -30.92 219.929 -30.92 219.929 C -32.66 219.876 -33.87 219.265 -36.01 219.625 C -36.01 219.625 -36.01 219.625 -36.01 219.625 C -38.98 219.757 -42.01 219.328 -44.96 219.682 C -44.96 219.682 -44.96 219.682 -44.96 219.682 C -44.96 219.682 -44.96 219.682 -44.96 219.682 C -46.69 219.47 -48.37 219.041 -50.28 219.605 C -50.28 219.605 -50.28 219.605 -50.28 219.605 C -51.69 219.173 -53.43 219.201 -55.28 219.385 C -57.85 219.27 -60.34 218.814 -63.03 219.285 C -63.03 219.285 -63.03 219.285 -63.03 219.285 C -64.27 219.108 -65.51 219.091 -66.76 219.28 C -68.24 218.739 -69.37 219.236 -70.62 219.361 C -70.62 219.361 -70.62 219.361 -70.62 219.361 C -70.62 219.361 -70.62 219.361 -70.62 219.361 C -71.51 219.361 -72.39 219.363 -73.28 219.363 C -73.69 219.335 -74.1 219.313 -74.51 219.295 C -74.51 219.295 -74.51 219.295 -74.51 219.295 C -77.37 218.298 -81.29 219.273 -84.52 218.959 C -84.52 218.959 -84.52 218.959 -84.52 218.959 C -85.67 218.158 -87.97 218.582 -89.92 218.645 C -89.92 218.645 -89.92 218.645 -89.92 218.645 C -94.22 217.919 -98.51 218.051 -102.81 218.65 C -103.92 217.879 -106.2 218.397 -107.98 218.355 C -109.02 218.071 -110.03 217.762 -111.81 218.044 C -111.81 218.044 -111.81 218.044 -111.81 218.044 C -115.24 218.118 -118.71 217.283 -122.1 218.081 C -123.37 218.049 -124.65 218.018 -125.92 217.986 C -127.94 216.998 -129.45 217.924 -131.17 218.073 C -131.56 218.046 -131.96 218.026 -132.37 218.013 C -133.69 217.369 -135 217.31 -136.27 218.021 C -136.7 218.044 -137.13 218.063 -137.57 218.085 C -137.57 218.085 -137.57 218.085 -137.57 218.085 C -137.57 218.085 -137.57 218.085 -137.57 218.085 C -137.99 218.058 -138.4 218.031 -138.82 218.006 C -138.82 218.006 -138.82 218.006 -138.82 218.006 C -139.74 217.605 -140.59 217.14 -142.68 217.722 C -144.82 217.572 -146.95 217.09 -149.12 217.707 C -152.94 217.205 -156.79 217.447 -160.63 217.684 C -162.38 217.265 -164.14 217.262 -165.92 217.671 C -165.92 217.671 -165.92 217.671 -165.92 217.671 C -168.97 217.135 -171.88 217.564 -174.82 217.757 C -174.82 217.953 -174.82 218.148 -174.81 218.345 C -174.8 218.348 -174.8 218.353 -174.79 218.355 C -174.8 218.355 -174.8 218.355 -174.81 218.355 C -174.81 218.355 -174.81 218.345 -174.81 218.345 C -177.82 218.345 -180.82 218.345 -183.83 218.345 L -183.82 218.358 C -186.86 218.315 -190.02 218.49 -192.82 218.039 C -193.67 218.143 -194.53 218.25 -195.38 218.355 C -196.24 218.46 -197.09 218.562 -197.95 218.667 C -197.95 218.667 -197.95 218.674 -197.95 218.674 C -198.81 218.677 -199.66 218.679 -200.52 218.681 C -200.52 218.681 -200.52 218.681 -200.52 218.681 C -200.95 218.679 -201.37 218.677 -201.8 218.674 C -203.52 218.385 -205.23 218.382 -206.95 218.674 C -206.95 218.674 -206.95 218.674 -206.95 218.674 C -206.95 218.674 -206.95 218.674 -206.95 218.674 C -206.95 218.674 -206.95 218.674 -206.95 218.674 C -206.95 218.567 -206.95 218.462 -206.95 218.355 C -208.12 218.402 -207.79 217.701 -209.53 218.036 C -210.78 218.6 -213.28 217.924 -214.66 218.355 C -214.72 218.105 -214.8 217.859 -215.94 217.752 C -215.94 217.752 -215.94 217.752 -215.94 217.752 C -215.94 217.752 -215.94 217.752 -215.94 217.752 C -215.94 217.752 -216 217.671 -216 217.671 C -218.11 217.764 -220.36 217.23 -222.38 217.759 C -224.52 217.824 -226.65 217.33 -228.79 217.759 C -228.79 217.759 -228.79 217.759 -228.79 217.759 C -230.95 217.801 -233.12 217.347 -235.28 217.762 C -237.85 217.362 -240.42 217.841 -242.99 217.767 C -242.99 217.767 -242.99 217.767 -242.99 217.767 C -244.38 217.742 -245.9 217.602 -246.81 218.023 C -246.81 218.023 -246.81 218.023 -246.81 218.023 C -250.76 217.948 -254.69 217.911 -258.46 218.295 C -258.46 218.295 -258.46 218.295 -258.46 218.295 C -263.59 217.941 -268.7 217.981 -273.79 218.338 C -275.97 218.011 -278.01 218.45 -280.14 218.41 C -280.14 218.41 -280.14 218.41 -280.14 218.41 C -281.45 218.512 -282.77 218.617 -284.08 218.719 C -284.08 218.719 -284.08 218.719 -284.08 218.719 C -284.92 218.722 -285.76 218.722 -286.6 218.724 C -286.6 218.724 -286.6 218.724 -286.6 218.724 C -288.31 218.697 -290.02 218.669 -291.73 218.642 C -291.73 218.642 -291.73 218.642 -291.73 218.642 C -293.06 218.115 -294.31 218.6 -295.6 218.659 C -295.6 218.659 -295.6 218.659 -295.6 218.659 C -297.36 218.247 -299.11 218.181 -300.85 218.667 C -300.85 218.667 -300.85 218.667 -300.85 218.667 C -301.28 218.684 -301.71 218.702 -302.15 218.717 C -302.15 218.717 -302.15 218.717 -302.15 218.717 C -302.15 218.717 -302.15 218.717 -302.15 218.717 C -304.27 218.483 -306.38 218.495 -308.48 218.729 C -308.48 218.729 -308.48 218.729 -308.48 218.729 C -311.19 218.49 -313.58 218.932 -316.16 218.956 C -317.5 218.552 -318.81 218.584 -320.07 218.978 C -321.35 218.934 -322.66 218.41 -323.9 218.993 C -324.92 219.008 -325.94 219.026 -326.5 219.293 C -328.19 219.153 -329.51 218.557 -331.7 219.034 C -331.7 219.034 -331.7 219.034 -331.7 219.034 C -334.26 219.123 -337.06 218.757 -339.37 219.295 C -339.37 219.295 -339.37 219.295 -339.37 219.295 C -339.77 219.313 -340.18 219.318 -340.58 219.313 C -342.29 218.831 -344.05 218.876 -345.85 219.28 C -345.85 219.28 -345.85 219.28 -345.85 219.28 C -347.85 219.091 -349.59 219.146 -350.9 219.61 C -353.46 219.934 -356.08 218.899 -358.63 219.627 C -358.63 219.627 -358.63 219.627 -358.63 219.627 C -359.9 219.622 -361.17 219.615 -362.44 219.61 C -362.44 219.61 -362.44 219.61 -362.44 219.61 C -364.78 219.243 -365.54 220.193 -367.67 220.001 C -367.67 220.001 -367.67 220.001 -367.67 220.001 C -373.52 219.665 -378.94 220.116 -384.34 220.582 C -384.76 220.592 -385.18 220.592 -385.6 220.582 C -385.6 220.582 -385.6 220.582 -385.6 220.582 C -387.37 220.141 -389.13 219.779 -390.91 220.58 C -390.91 220.58 -390.91 220.58 -390.91 220.58 C -392.57 220.592 -394.22 220.605 -395.88 220.617 C -395.88 220.617 -395.88 220.617 -395.88 220.617 C -396.68 220.607 -397.49 220.597 -398.29 220.587 C -398.29 220.587 -398.29 220.587 -398.29 220.587 C -399.33 219.622 -401.49 219.871 -403.79 220.273 C -403.17 220.632 -401.92 220.473 -400.85 220.468 C -402.61 220.543 -404.35 220.635 -406.16 220.575 C -406.6 220.705 -407.03 220.835 -407.47 220.962 C -407.47 220.962 -407.47 220.962 -407.47 220.962 C -407.47 220.962 -407.47 220.962 -407.47 220.962 C -409.43 220.787 -410.5 221.593 -412.61 221.254 C -414.64 221.223 -416.95 221.333 -416.68 221.904 C -416.44 222.396 -414 222.066 -412.57 222.147 C -412.62 222.266 -412.66 222.386 -412.7 222.505 C -412.7 222.505 -412.7 222.505 -412.7 222.505 C -413.08 222.51 -413.45 222.528 -413.81 222.556 C -413.81 222.556 -413.81 222.556 -413.81 222.556 C -416.37 222.768 -418.94 222.982 -421.5 223.194 C -421.5 223.194 -421.5 223.194 -421.5 223.194 C -423.98 222.942 -426.32 222.476 -429.24 222.862 C -430.71 222.852 -432.3 222.755 -434.19 223.244 C -431.05 223.464 -428.85 223.69 -426.64 223.169 C -426.64 223.169 -426.64 223.169 -426.64 223.169 C -425.03 223.608 -423.24 223.903 -420.65 223.812 C -419.01 223.756 -417.72 223.905 -417.88 224.413 C -417.88 224.413 -417.88 224.413 -417.88 224.413 C -420.83 224.419 -423.77 224.421 -426.72 224.426 C -426.72 224.426 -426.72 224.426 -426.72 224.426 C -429.7 223.675 -432.72 224.431 -435.72 224.413 C -438.68 223.603 -440.37 224.202 -442.09 224.771 C -442.09 224.771 -442.09 224.771 -442.09 224.771 C -442.09 224.771 -442.09 224.771 -442.09 224.771 C -442.54 224.885 -443 224.997 -443.45 225.112 C -443.45 225.112 -443.45 225.112 -443.45 225.112 C -443.45 225.112 -443.45 225.112 -443.45 225.112 C -446.57 224.918 -448.91 225.286 -451.11 225.761 C -451.11 225.761 -451.11 225.761 -451.11 225.761 C -455.37 225.833 -458.85 226.185 -460.16 227.322 C -460.16 227.322 -460.16 227.322 -460.16 227.322 C -461.87 227.532 -463.19 227.841 -464.02 228.273 C -464.02 228.273 -464.02 228.273 -464.02 228.273 C -464.87 228.49 -465.72 228.707 -466.57 228.924 C -467.41 228.926 -468.24 228.926 -469.08 228.929 C -469.12 229.647 -469.54 230.417 -465.39 230.535 C -465.78 231.493 -466.16 232.451 -466.55 233.408 C -465.45 233.907 -464.4 234.426 -461.5 234.072 C -461.5 234.072 -461.5 234.072 -461.5 234.072 C -460.15 234.992 -456.01 234.98 -453.59 235.539 C -453.59 235.539 -453.59 235.539 -453.59 235.539 C -453.59 235.539 -453.59 235.539 -453.6 235.541 C -453.26 235.898 -452.92 236.252 -452.58 236.606 C -452.58 236.606 -452.58 236.606 -452.58 236.606 C -456.72 236.436 -456.1 237.766 -459.28 237.976 C -459.67 238.001 -457.33 238.347 -456.35 238.574 C -456.35 238.574 -456.35 238.574 -456.35 238.574 C -456.31 238.889 -456.28 239.2 -456.24 239.514 C -456.24 239.514 -456.24 239.514 -456.24 239.514 C -456.24 239.514 -456.24 239.514 -456.24 239.514 C -456.28 239.61 -456.31 239.707 -456.32 239.801 C -457.63 240.013 -458.13 240.51 -460.14 240.475 C -463.25 240.073 -462.67 240.667 -462.76 241.081 C -462.76 241.081 -462.76 241.081 -462.76 241.081 C -465.06 242.193 -465.39 243.396 -465.29 244.616 C -464.91 244.695 -464.53 244.743 -464.14 244.753 C -464.59 245.291 -463.91 245.768 -462.74 246.217 C -462.71 246.644 -462.68 247.07 -462.64 247.496 C -462.85 247.866 -462.31 248.177 -461.4 248.457 C -460.76 249.415 -461.46 250.412 -460.04 251.35 C -459.26 251.952 -459.87 252.752 -456.29 252.942 C -456.27 252.937 -456.25 252.929 -456.22 252.924 C -456.22 252.927 -456.22 252.929 -456.22 252.932 C -456.22 252.932 -456.22 252.932 -456.22 252.932 C -456.22 252.932 -456.29 252.942 -456.29 252.942 C -456.94 253.735 -456.79 254.333 -452.47 253.917 C -452.47 253.917 -452.47 253.917 -452.47 253.917 C -449.72 254.361 -446 253.932 -443.44 254.543 C -442.58 254.543 -441.73 254.543 -440.87 254.543 C -440.44 254.543 -440.01 254.543 -439.58 254.543 C -437.87 254.543 -436.15 254.543 -434.44 254.543 C -432.3 254.543 -430.16 254.543 -428.01 254.543 C -427.05 254.157 -425.49 254.213 -424.04 254.216 C -414.98 254.231 -406.06 253.897 -397.16 253.53 C -376.59 253.338 -356.02 253.146 -335.45 252.952 C -327.26 252.874 -319.01 252.964 -311.07 252.31 C -311.07 252.31 -311.07 252.31 -311.07 252.31 C -309.3 252.857 -306.77 252.498 -304.67 252.647 C -304.67 252.647 -304.67 252.647 -304.67 252.647 C -300.62 252.891 -296.99 252.29 -293.06 252.295 C -287.07 252.305 -281.09 252.315 -275.1 252.323 C -269.94 252.201 -264.79 252.079 -259.63 251.959 C -257.93 252.056 -256.22 252.151 -254.52 252.248 C -254.52 252.248 -254.52 252.248 -254.52 252.248 C -250.62 252.176 -246.61 252.34 -242.87 251.909 C -242.87 251.909 -242.87 251.909 -242.87 251.909 C -242.87 251.909 -242.87 251.909 -242.87 251.909 C -240.13 252.211 -237.5 252.271 -235.19 251.675 C -235.19 251.675 -235.19 251.675 -235.19 251.675 C -233.81 252.156 -231.91 252.146 -229.75 252.123 C -216.47 251.991 -203.18 251.851 -189.89 251.802 C -177.95 251.757 -165.99 251.805 -154.05 251.856 C -152.28 251.864 -151.82 251.689 -151.43 251.365 C -151.43 251.365 -151.43 251.365 -151.43 251.365 C -151.12 251.378 -150.81 251.39 -150.51 251.402 C -150.51 251.402 -150.51 251.402 -150.51 251.402 C -146.49 252.176 -142.04 251.64 -137.77 251.67 C -123.93 251.764 -110.09 251.884 -96.25 251.957 C -91.6 251.981 -86.96 252.447 -82.29 251.993 C -82.27 251.974 -82.25 251.957 -82.22 251.937 C -82.21 251.939 -82.19 251.939 -82.18 251.942 C -82.18 251.942 -82.29 251.993 -82.29 251.993 C -81.88 252.114 -81.45 252.343 -81.07 252.338 C -72.46 252.208 -63.82 252.627 -55.23 252.244 C -51.81 252.445 -48.39 252.442 -44.96 252.248 C -44.96 252.248 -44.96 252.248 -44.96 252.248 C -43.3 252.525 -41.5 252.63 -39.5 252.587 C -26.87 252.325 -14.76 251.437 -2.52 250.709 C -2.57 250.694 -2.62 250.679 -2.67 250.664 C -2.62 250.662 -2.58 250.662 -2.53 250.659 C -2.53 250.659 -2.53 250.659 -2.53 250.659 C -2.53 250.659 -2.51 250.709 -2.51 250.709 C 4.77 250.497 12.31 250.824 19.33 250.061 C 24.3 250.252 28.16 249.829 30.89 248.776 C 30.89 248.457 30.89 248.135 30.89 247.816 C 30.89 247.067 30.89 246.322 30.89 245.573 C 30.45 245.476 30.01 245.429 29.57 245.431 C 29.65 244.925 29.35 244.401 30.89 243.972 C 30.89 243.757 30.89 243.545 30.89 243.331 C 29.6 243.226 28.32 243.122 27.03 243.019 C 25.7 242.525 25.58 241.969 25.69 241.403 C 25.69 241.403 25.69 241.403 25.69 241.403 C 25.69 241.403 25.69 241.403 25.69 241.403 C 27.08 240.991 27.37 240.186 30.83 240.452 Z" fill="#EF749A" style=""></path>
  </g>
</svg>